<?xml version="1.0" encoding="utf-8"?>
<!-- Generator: Adobe Illustrator 20.0.0, SVG Export Plug-In . SVG Version: 6.00 Build 0)  -->
<svg version="1.0" id="Layer_1" xmlns="http://www.w3.org/2000/svg" xmlns:xlink="http://www.w3.org/1999/xlink" x="0px" y="0px"
	 viewBox="0 0 700 700" enable-background="new 0 0 700 700" xml:space="preserve">
<g>
	<path fill="#B10AC9" d="M561.1,575.9H142.8c-53.6,0-97.4-43.8-97.4-97.4V275.8c0-53.6,43.8-97.4,97.4-97.4h6.9c0,0,0.8-3.3,1.6-6.5
		c0.9-3.6,4.1-6.2,7.8-6.2h3.9c3,0,5.7,1.8,6.8,4.6c1.4,3.6,3.2,8.1,3.2,8.1c0.2,0,50.3,0,50.8,0c20.1-1.4,40.1-80.2,52.8-80.2
		c69,0,89.8,0,161.4,0c12,0,34,78.8,53.3,80.2c34.4,2.4,35.5,0,69.9,0c6.6,0,41,0.8,68.8,28.6c17.7,17.7,28.6,42,28.6,68.8v202.6
		C658.5,532,614.7,575.9,561.1,575.9z"/>
	<circle fill="#FFFFFF" cx="342.7" cy="373.9" r="148.9"/>
	<circle fill="#DB0B46" cx="342.7" cy="373.9" r="114.3"/>
	<path fill="#F70F5D" d="M339.6,279.5c52.1-1.2-26.9,42.2-25.7,94.4c1.2,52.1,82.2,93.3,30.1,94.5c-52.1,1.2-95.4-40.1-96.6-92.3
		S287.4,280.7,339.6,279.5z"/>
</g>
</svg>
