<?xml version="1.0" encoding="utf-8"?>
<!-- Generator: Adobe Illustrator 20.0.0, SVG Export Plug-In . SVG Version: 6.00 Build 0)  -->
<svg version="1.0" id="Layer_1" xmlns="http://www.w3.org/2000/svg" xmlns:xlink="http://www.w3.org/1999/xlink" x="0px" y="0px"
	 viewBox="0 0 700 700" enable-background="new 0 0 700 700" xml:space="preserve">
<g>
	<path fill="#27AAE1" d="M576.8,509c-12,0-20,1.4-25.2,2c-47.6,5.7,42.2,81.5,23,81.5c-16.9,0-170.5-85.7-264.8-83.5
		c-95.9,2.2-76.8,0-172.7,0c-6.1,0-38-0.7-63.9-26.6c-16.4-16.4-26.6-39-26.6-63.9V225.1c0-49.7,40.7-90.5,90.5-90.5h432.2
		c49.7,0,90.5,40.7,90.5,90.5v193.5C659.7,468.3,626.5,509,576.8,509z"/>
	<path fill="#FFF033" d="M538.2,457.8c-10.3,0-17.2,1.1-21.6,1.6c-40.8,4.6-35.8,18.9-34.2,43c0.9,14.5-85.2-46.5-166-44.7
		c-82.3,1.8-65.9,0-148.2,0c-5.2,0-25.5,6.5-47.7-14.5c-14.1-13.4-15.7-24.7-15.7-44.9V240.8c0-40.5,20.7-52.4,63.4-52.4h370.7
		c42.7,0,63.4,11.8,63.4,52.4v157.6C602.2,438.9,580.8,457.8,538.2,457.8z"/>
	<circle fill="#108EC6" cx="196.2" cy="389.7" r="34.1"/>
	<circle fill="#108EC6" cx="307" cy="389.7" r="34.1"/>
	<circle fill="#108EC6" cx="417.9" cy="389.7" r="34.1"/>
</g>
</svg>
