<?xml version="1.0" encoding="utf-8"?>
<!-- Generator: Adobe Illustrator 20.0.0, SVG Export Plug-In . SVG Version: 6.00 Build 0)  -->
<svg version="1.0" id="Layer_1" xmlns="http://www.w3.org/2000/svg" xmlns:xlink="http://www.w3.org/1999/xlink" x="0px" y="0px"
	 viewBox="0 0 700 700" enable-background="new 0 0 700 700" xml:space="preserve">
<g>
	<path fill="#DB0B46" d="M624.7,545.4H69.1c-8.3,0-15.1-6.8-15.1-15.1v-349c0-8.3,6.8-15.1,15.1-15.1h555.6
		c8.3,0,15.1,6.8,15.1,15.1v349C639.8,538.7,633,545.4,624.7,545.4z"/>
	<path fill="#FBB040" d="M598.4,519.1H91.3c-6.6,0-12-5.4-12-12V200.9c0-6.6,5.4-12,12-12h507.1c6.6,0,12,5.4,12,12v306.3
		C610.4,513.7,605,519.1,598.4,519.1z"/>
	<path fill="#FBB040" d="M552.1,351.6c8.8,115.3-80.1,160.1-196.9,160.8c-102.1,0.6-164.2,5.7-195.5-66.6
		c-17.6-40.5-20.3-129,11.6-175c6.1-8.7-2.2-27.4,5.8-35.1s23.5-25.8,33.1-32.6c58.1-41,109.7-40.9,126.4-40.9
		C449.7,162.3,543.2,233.9,552.1,351.6z"/>
	<path fill="#FFFFFF" d="M514.4,358.1c7.3,96.7,52.9,128.1-174.2,135.7c-182.2,6.1-172.1-8.7-179.8-91.6
		c-5.4-58.2-3.1-86.7,23.7-125.6c5.6-8.2,6.8-21.4,10.8-28c4-6.6,21.9-17.3,31.2-22.1c33.2-17.3,47.9-38,109.5-33.8
		C429.3,199,507,259.3,514.4,358.1z"/>
	<path fill="#DB0B46" d="M395.2,304.6c0,10.4-17.7,21.6-36.3,21.6c-18.6,0-31.1-5.8-31.1-16.2s15.1-28.3,33.7-28.3
		S395.2,294.2,395.2,304.6z"/>
	<path fill="#FFFFFF" d="M390.3,303.9c0,8.8-14.2,18.1-29.1,18.1c-14.9,0-24.9-4.8-24.9-13.6s12.1-23.8,27-23.8
		C378.2,284.6,390.3,295.1,390.3,303.9z"/>
	<path fill="#DB0B46" d="M390.3,304c0,9-7.3,18-16.2,18s-16.2-4.1-16.2-18c0-9,7.3-18.4,16.2-18.4S390.3,295,390.3,304z"/>
	<path fill="#DB0B46" d="M249.9,277.3c0,10.2-8.4,19-18.6,19s-22.5-7.5-22.6-17.7c-0.1-9.4,12.7-19,23.5-19.7
		C245.1,258,249.9,267.1,249.9,277.3z"/>
	<path fill="#FFFFFF" d="M248,278.2c0,9.1-7.6,17.1-16.8,17.1c-9.2,0-15.3-6.6-15.3-15.7c0-11.4,6.8-18,16.5-18.6
		C244.2,260.1,248,269,248,278.2z"/>
	<path fill="#DB0B46" d="M248,280.2c0,9.2-6.7,14.2-10,14.7c-9.1,1.4-15.2-1-15.2-14.6c0-9.2,7.4-16.6,16.6-16.6
		C247.4,263.8,248,271.1,248,280.2z"/>
	<ellipse fill="#FFFFFF" cx="365.8" cy="291.8" rx="5.6" ry="3.3"/>
	<ellipse fill="#FFFFFF" cx="235.5" cy="267.1" rx="5.6" ry="3.3"/>
	<path fill="#DB0B46" d="M330,433.3c5.9,2.3-37.8,14.6-70.9,16.6c-52,3.1-70.9-22.7-70.9-29.1c0-10.7,26.6-5.1,72.7,14.9
		C284.7,446.1,312.5,426.6,330,433.3z"/>
	<path fill="#DB0B46" d="M257.6,360.9c-0.4,7.8-8.7,15.2-13.2,15.8c-3.2,0.5-8-3.3-7.6-11c0.3-6.8-6.7-11-10.3-10
		c-8.6,2.5-7.3,7.6-7.3,10.1c0.1,2.5,5.3,7.2,9.1,8.9c7,3.2,13.7,1.6,11.3,9.4c-1.5,4.9-20.5,10.3-27.3,9.5
		c-2.6-0.3-1.7-23.7-3.6-1.2c0,0-2-0.6-4-1.7c-5-2.5-14-7.1-19.3-18.4c-2.1-4.6,11.2-0.7,14.9-4.9c2.6-3,2.6-4.9,0.2-11.1
		c-5.2-13.3-15.5,11.8-15.5,3.7c0-11.8,13.3-24.1,28.2-25.4C234.4,332.9,258.2,348.2,257.6,360.9z"/>
	<path fill="#FBB040" d="M523.8,195.3c0,46.8-5.8,106.8-12,107.3c-16.9,1.4-112-101.2-100.5-112.7c32.2-32.2,75.6-81,89.1-81
		C526.4,108.9,523.8,148.5,523.8,195.3z"/>
	<path fill="#FFFFFF" d="M503.8,206.1c0,38.4,2.1,100.1-2.3,101.4c-20.5,6.1-95.7-82.9-87.7-93.2c21.8-28.4,65.5-79.9,74.8-78.6
		C507.9,138.5,503.8,167.7,503.8,206.1z"/>
	<path fill="#DB0B46" d="M488.6,231.6c-6,32.2-8.6,25.7-23.3,13.5c-20.2-16.8-10.3-22.1-2.7-31.9c7.7-9.9,18.3-25.6,23.7-23.5
		S490.9,219.4,488.6,231.6z"/>
	<path fill="#FBB040" d="M246.2,178c0,22.8,3.1,12.3,28.9-0.9c12.8-6.5,39.4,3,32.9-3.5c-20.7-20.5-43-54-49.9-54
		C244.9,119.6,246.3,146.4,246.2,178z"/>
</g>
</svg>
